Coordinates
version=1
nRows=19
nColumns=36
inDegrees=yes

Units are S.I. units (second, meters, Newtons, ...)
If the header above contains a line with 'inDegrees', this indicates whether rotational values are in degrees (yes) or radians (no).

endheader
time	pelvis_tilt	pelvis_list	pelvis_rotation	pelvis_tx	pelvis_ty	pelvis_tz	hip_flexion_r	hip_adduction_r	hip_rotation_r	knee_angle_r	knee_angle_r_beta	ankle_angle_r	subtalar_angle_r	mtp_angle_r	hip_flexion_l	hip_adduction_l	hip_rotation_l	knee_angle_l	knee_angle_l_beta	ankle_angle_l	subtalar_angle_l	mtp_angle_l	lumbar_extension	lumbar_bending	lumbar_rotation	arm_flex_r	arm_add_r	arm_rot_r	elbow_flex_r	pro_sup_r	arm_flex_l	arm_add_l	arm_rot_l	elbow_flex_l	pro_sup_l
      0.00000000	     -1.93341946	     -3.29839327	      0.37796008	      0.75321807	      0.90708482	      0.13829385	      3.38811499	      9.51222004	      1.90492498	      9.89792281	      0.17275134	      8.51334858	    -12.25503988	     -6.50134060	     15.82682515	     -4.72069711	      2.60009732	     59.47819034	      1.03809025	     -4.09502037	    -14.29899446	     -6.50134060	     -4.40611176	      6.10294049	     -4.97663780	     37.20662912	      1.80289845	     63.77784763	    120.24384465	     85.28194502	     35.59107486	      6.69242563	     65.23544410	    114.28466656	     99.10354244
      0.01666670	     -1.23165524	     -2.85739400	      0.76870976	      0.74726318	      0.90578600	      0.14220913	      0.70387405	      9.51011886	      1.51850590	      6.76405279	      0.11805499	      8.05988908	     -9.84622315	     -6.75405754	     16.12119352	     -4.26220476	      3.16016786	     58.54348976	      1.02177665	     -1.52286481	    -13.42204828	     -6.75405754	     -6.13955371	      5.64704909	     -3.44491567	     41.18234969	      0.58600387	     72.22705477	    125.72578103	     99.98549056	     39.29034493	      6.09582874	     66.46911746	    119.67119114	    108.88970002
      0.03333330	     -0.48944139	     -2.29268761	      0.37526412	      0.74705922	      0.90567417	      0.14357764	     -0.83146871	      9.17905891	      2.08778399	      6.32432522	      0.11038030	      8.09046212	     -9.05327557	     -6.80395452	     16.39770421	     -3.68093840	      3.21682551	     57.85062311	      1.00968385	      0.26156239	    -13.59717231	     -6.80395452	     -7.13629818	      4.84509975	     -3.21522843	     41.22236512	      2.60266566	     71.66561973	    126.91695224	    103.41537246	     41.09433045	      5.27414715	     66.54725866	    120.66748058	    111.18698129
      0.05000000	     -0.25739061	     -1.76746313	      0.04211719	      0.75362381	      0.90921582	      0.14116226	     -1.69500417	      8.77616797	      2.50918081	      5.93596290	      0.10360210	      9.29774554	     -8.59047326	     -6.96480168	     17.15617559	     -3.22386825	      2.98483142	     57.61190359	      1.00551741	      0.92155406	    -13.78773840	     -6.96480168	     -7.52512999	      4.26733210	     -3.11027460	     40.76980301	      3.65364837	     72.40243885	    126.63722471	    105.14373501	     41.30350248	      4.80239190	     66.91812177	    121.09148471	    112.07759772
      0.06666670	     -0.34644301	     -1.21337208	     -0.51770596	      0.74675989	      0.91028934	      0.14512202	     -2.11601182	      8.36771651	      3.01459474	      5.39601651	      0.09417825	     10.42350832	     -8.59407740	     -6.97405976	     18.25452499	     -2.87505558	      2.63964502	     56.71801767	      0.98991615	      1.78851764	    -14.71343039	     -6.97405976	     -7.66064036	      3.51218929	     -2.60210301	     40.60303624	      4.21924395	     73.14413542	    126.10189294	    105.22328754	     42.06529698	      4.54814403	     67.10278116	    121.04713760	    111.81541662
      0.08333330	      0.15061109	     -0.68775447	     -1.12346681	      0.75277849	      0.91441464	      0.14305370	     -3.23142056	      7.89794425	      3.33327153	      4.77694168	      0.08337336	     11.02648191	     -8.38113122	     -7.06662437	     18.71418896	     -2.45639642	      2.38085872	     55.45577627	      0.96788589	      2.69598600	    -15.51420122	     -7.06662437	     -8.53011157	      2.92996480	     -1.84634978	     40.65758123	      4.22623600	     73.90026020	    125.82705347	    103.77585462	     42.51057167	      4.49311395	     67.69832975	    121.01473695	    110.25731615
      0.10000000	      0.21606462	     -0.33414869	     -1.62955417	      0.74567135	      0.91063291	      0.14694089	     -3.56090550	      7.64429275	      3.67582963	      4.46052274	      0.07785081	     11.49033470	     -8.34726930	     -7.09266936	     19.45363487	     -2.23175351	      2.11308711	     53.65876138	      0.93652206	      3.42227640	    -16.14475781	     -7.09266936	     -8.82514604	      2.47553205	     -1.33235255	     41.09649370	      4.68891995	     73.83289080	    125.17321206	    103.68945346	     43.73738918	      4.39831523	     67.74583344	    121.30481389	    110.05627219
      0.11666670	      0.30433657	     -0.12039529	     -1.96499131	      0.75212900	      0.91390850	      0.14442676	     -3.97409744	      7.51459599	      3.94072287	      4.16774074	      0.07274080	     11.31263119	     -8.73307561	     -7.14901902	     19.99952024	     -2.11743445	      1.88262337	     51.49689738	      0.89879041	      4.27032250	    -16.75517117	     -7.14901902	     -9.07771358	      2.16552711	     -1.23486639	     41.15007998	      4.71326700	     73.33583009	    124.92256319	    100.70814879	     44.89722194	      3.79121117	     67.40729133	    121.62565493	    107.40907722
      0.13333330	      1.00069085	      0.11267326	     -2.18431230	      0.74488184	      0.91408929	      0.14242142	     -4.91143656	      7.31680224	      4.11408398	      4.02543038	      0.07025701	     11.45765045	     -8.70839758	     -7.19171558	     19.95827492	     -1.94996654	      1.46103073	     48.71467693	      0.85023151	      5.08693701	    -17.23434719	     -7.19171558	    -10.21812878	      1.88880967	     -1.26240892	     42.11198975	      4.76220445	     72.77498599	    123.94024472	    102.77944146	     46.88120120	      3.21787789	     67.05182889	    121.61748456	    109.54690625
      0.15000000	      1.33833782	      0.19355777	     -2.18566223	      0.73774600	      0.91873710	      0.14588750	     -5.30127629	      7.36009718	      4.47993976	      4.05972120	      0.07085550	     11.36185479	     -9.25644865	     -7.20300600	     20.51191795	     -2.01795092	      1.18079246	     45.94714563	      0.80192897	      5.22519532	    -17.37763906	     -7.20300600	    -11.21037995	      1.80075217	     -1.33795470	     42.68613015	      4.70823546	     72.39244260	    123.11187153	    100.95032577	     48.62458223	      2.15487631	     67.39703199	    121.77838018	    107.95333790
      0.16666670	      1.76555230	      0.22794152	     -2.10260472	      0.73766814	      0.91971838	      0.14637785	     -5.70185640	      7.41242931	      4.53643815	      4.05701548	      0.07080828	     11.42821629	     -9.20820499	     -7.21862638	     20.83602680	     -2.16260721	      0.97668514	     42.86655133	      0.74816246	      5.50983645	    -17.58765045	     -7.21862638	    -12.20991043	      1.74893162	     -1.47945695	     43.06447247	      4.81207870	     71.75353187	    122.54337983	    100.43252081	     49.93310710	      1.46196012	     67.41469750	    122.03991553	    107.34672622
      0.18333330	      2.18074643	      0.18807071	     -1.99654159	      0.73710791	      0.91982294	      0.14641028	     -6.02137113	      7.53831906	      4.70762801	      4.12323371	      0.07196400	     11.29109864	     -9.56981419	     -7.23487075	     21.12178557	     -2.42124472	      0.68666185	     39.91021533	      0.69656466	      5.61850733	    -17.65365249	     -7.23487075	    -13.17423426	      1.77684233	     -1.65428375	     43.49478739	      5.02883024	     71.12964294	    121.87502332	     99.78479921	     51.15957289	      0.75302993	     67.38657979	    122.28053097	    106.71321232
      0.20000000	      2.57050703	      0.09647077	     -2.14882778	      0.73676811	      0.92842969	      0.14654077	     -6.48144435	      7.61556477	      4.95185363	      3.97966266	      0.06945822	     11.17435298	     -9.35662209	     -7.25493338	     21.30943448	     -2.66740563	      0.42427653	     36.16679410	      0.63122964	      5.90315217	    -16.87522692	     -7.25493338	    -14.19294369	      2.05395480	     -1.52977546	     43.81061921	      4.71454613	     70.98553071	    121.08002015	     99.57230209	     51.52776796	      0.13399301	     67.99495400	    122.45477683	    107.19359663
      0.21666670	      2.68633757	     -0.07748159	     -2.13279056	      0.72977307	      0.92722567	      0.14966705	     -6.36331890	      7.82509556	      5.11104222	      4.16057063	      0.07261566	     11.02851481	     -9.48959477	     -7.27921406	     22.04610935	     -3.10966792	      0.27916674	     32.89767871	      0.57417281	      5.67234507	    -16.31835247	     -7.27921406	    -15.05644949	      2.34696455	     -1.41687242	     44.60175944	      4.99355169	     70.89594392	    120.44091955	     99.49174446	     52.31597925	     -0.51188245	     68.28286498	    122.51958732	    108.30972439
      0.23333330	      2.87833263	     -0.17466290	     -2.15536947	      0.72947354	      0.93267053	      0.14958428	     -6.19839930	      7.90264846	      5.18429863	      4.43531755	      0.07741089	     10.83354552	     -9.71032289	     -7.28916153	     22.35756909	     -3.41554121	     -0.22521414	     29.49780516	      0.51483382	      5.65495134	    -15.02855972	     -7.28916153	    -16.03703969	      2.53172982	     -0.91851651	     45.39618472	      4.71644980	     71.09797272	    119.71886806	     98.25281601	     52.98523229	     -0.77703829	     68.71818496	    121.99251251	    106.82029287
      0.25000000	      2.72542947	     -0.35935055	     -2.30722619	      0.72285947	      0.93096897	      0.14661393	     -5.44536707	      8.05406646	      5.17465665	      5.04936747	      0.08812809	     10.90326318	     -9.67361725	     -7.31846600	     23.56502794	     -3.77703972	     -0.36770246	     26.66967260	      0.46547360	      5.36714697	    -14.18637893	     -7.31846600	    -16.71396991	      2.99431417	     -0.80689318	     46.70462284	      4.78944073	     71.38453045	    118.93277529	     98.61328211	     53.96966490	     -0.95006308	     68.59304957	    121.68055473	    107.79394293
      0.26666670	      2.66675691	     -0.48627118	     -2.47000277	      0.72243652	      0.92481196	      0.14662319	     -4.75085740	      8.16956040	      5.05336239	      5.72068853	      0.09984485	     11.14376917	     -9.75382890	     -7.32589877	     24.70913400	     -4.09677291	     -0.47941003	     24.39907849	      0.42584425	      5.54719260	    -13.14004953	     -7.32589877	    -17.20407876	      3.30274735	     -0.48839320	     48.00410957	      4.96161560	     71.64393537	    119.36480625	     98.32899486	     54.91208177	     -0.79722329	     68.36828608	    121.44738344	    107.24870373
      0.28333330	      2.20001062	     -0.78467531	     -2.79421952	      0.70881509	      0.92490334	      0.14661299	     -3.43095293	      8.43314514	      5.24711035	      6.68427700	      0.11666264	     11.19173954	     -9.64233107	     -7.34867702	     26.71039768	     -4.44190156	     -0.09479377	     22.05642857	      0.38495730	      5.87940435	    -11.88472621	     -7.34867702	    -17.89080871	      3.84711749	      0.11333045	     50.13809389	      5.11675136	     71.96633269	    118.98893146	     97.95521941	     56.40664655	     -0.73638006	     68.34663674	    121.55295188	    107.09811303
      0.30000000	      1.86315597	     -1.00823289	     -3.14091962	      0.70194151	      0.92064373	      0.14401722	     -2.22397787	      8.65389611	      5.47834540	      7.72880021	      0.13489301	     11.32974048	     -9.57080147	     -7.36150664	     28.67744847	     -4.77834668	      0.29576847	     20.23068346	      0.35309204	      6.76145177	    -10.57073005	     -7.36150664	    -18.87891064	      4.24352391	      0.91533300	     52.47656489	      4.49062345	     71.80265472	    118.19764756	     97.39651961	     58.10738847	     -0.67527705	     67.95541813	    121.26381540	    107.11230222
